<?xml version="1.0" standalone="no"?>
<!DOCTYPE svg PUBLIC "-//W3C//DTD SVG 20010904//EN"
 "http://www.w3.org/TR/2001/REC-SVG-20010904/DTD/svg10.dtd">
<svg version="1.0" xmlns="http://www.w3.org/2000/svg"
 width="8333.000000pt" height="8333.000000pt" viewBox="0 0 8333.000000 8333.000000"
 preserveAspectRatio="xMidYMid meet">

<g transform="translate(0.000000,8333.000000) scale(0.100000,-0.100000)"
fill="#000000" stroke="none">
<path d="M36645 70904 c-601 -16 -1120 -40 -1605 -75 -4834 -342 -9518 -1814
-13675 -4297 -1957 -1169 -3758 -2532 -5440 -4116 -245 -232 -999 -986 -1231
-1231 -2450 -2600 -4401 -5529 -5836 -8760 -1535 -3454 -2429 -7208 -2618
-10990 -48 -967 -52 -2096 -10 -3015 151 -3296 797 -6457 1945 -9525 600
-1601 1377 -3235 2251 -4732 2401 -4110 5722 -7624 9694 -10258 2960 -1963
6208 -3392 9655 -4249 4020 -998 8273 -1180 12395 -530 3723 587 7312 1853
10580 3732 1882 1081 3643 2354 5255 3797 797 713 1738 1654 2450 2450 2332
2606 4248 5652 5557 8835 44 107 85 200 92 206 6 6 74 39 151 74 174 79 624
304 810 406 628 343 1223 743 1688 1136 326 275 441 351 703 464 392 170 856
287 1882 474 244 44 524 96 624 115 618 120 1199 167 2418 195 930 22 1291 44
1735 106 1079 151 1891 518 2276 1027 307 406 370 890 170 1302 -104 212 -413
578 -916 1081 -464 465 -884 836 -1435 1269 -214 168 -4398 3296 -4640 3470
-995 710 -2129 1382 -3107 1838 l-122 57 -5 52 c-3 29 -12 193 -21 363 -77
1501 -292 3143 -611 4658 -498 2370 -1243 4595 -2284 6822 -124 265 -519 1054
-666 1330 -3336 6278 -8724 11236 -15244 14028 -2993 1281 -6169 2080 -9425
2371 -531 48 -1082 82 -1680 106 -255 10 -1523 20 -1760 14z m1340 -3334
c1647 -45 3177 -214 4737 -524 4765 -946 9187 -3132 12864 -6357 816 -716
1684 -1577 2403 -2384 1030 -1156 1935 -2353 2751 -3640 2198 -3468 3594
-7373 4089 -11445 24 -193 71 -617 71 -635 0 -9 -1023 412 -1494 615 -670 288
-1077 477 -1686 782 -703 351 -622 300 -973 614 -860 771 -1386 1207 -2122
1760 -731 549 -1270 1018 -2770 2409 -1611 1494 -2186 1990 -3095 2675 -382
288 -554 425 -1042 831 -199 167 -437 362 -528 434 -240 191 -4344 3257 -4545
3396 -590 406 -1261 753 -2130 1101 -357 143 -411 158 -554 158 -127 0 -146
-5 -471 -109 -1284 -413 -2800 -819 -3697 -991 l-161 -31 -1434 1072 c-1705
1275 -1579 1182 -1735 1280 -383 240 -842 414 -1305 494 -527 91 -1236 108
-2013 50 -1589 -121 -3775 -558 -4935 -987 -223 -83 -313 -131 -845 -455
-1780 -1082 -3246 -2019 -4415 -2821 -2896 -1989 -4395 -3386 -4729 -4407 -64
-197 -76 -272 -76 -490 0 -462 101 -991 309 -1625 67 -203 76 -239 91 -370 42
-376 166 -853 337 -1288 33 -84 58 -156 56 -161 -2 -4 -55 -55 -118 -113 -653
-596 -1065 -1222 -1185 -1797 -8 -41 -24 -152 -35 -247 -11 -95 -26 -219 -34
-276 -52 -368 -43 -637 28 -844 65 -191 172 -348 387 -568 l156 -159 6 -131
c13 -282 73 -459 221 -656 76 -102 279 -301 431 -424 61 -49 160 -138 220
-196 61 -59 166 -153 235 -210 69 -57 168 -145 220 -196 52 -51 154 -142 226
-202 72 -60 169 -146 215 -191 46 -45 132 -123 192 -173 59 -50 107 -96 107
-101 0 -4 -11 -90 -25 -190 -161 -1192 -173 -2448 -35 -3597 306 -2538 1281
-4828 2854 -6705 290 -346 765 -842 1080 -1129 431 -393 542 -479 2191 -1713
l1420 -1062 630 -647 c347 -356 684 -703 750 -773 65 -69 441 -457 835 -861
393 -404 769 -792 835 -861 114 -119 788 -814 2416 -2488 393 -405 764 -788
824 -851 60 -63 436 -451 835 -861 399 -410 894 -921 1100 -1135 586 -608
1298 -1314 3182 -3154 l1746 -1705 -36 -7 c-53 -11 -427 -54 -712 -82 -2436
-245 -4909 -171 -7310 220 -3086 502 -6055 1521 -8799 3021 -3014 1647 -5718
3858 -7930 6483 -4749 5635 -7041 12829 -6436 20200 338 4106 1580 8059 3653
11625 1465 2520 3344 4821 5527 6770 3397 3032 7466 5177 11860 6250 2383 582
4890 851 7320 785z m-3800 -9970 c557 -28 861 -93 1201 -260 358 -176 672
-443 993 -845 128 -159 242 -318 451 -625 390 -574 556 -778 787 -969 391
-324 786 -397 1593 -295 948 119 2503 507 4321 1077 l267 83 108 -43 c667
-267 1228 -552 1704 -868 327 -217 526 -371 1145 -886 500 -416 652 -537 1082
-862 875 -660 1430 -1140 2908 -2512 1573 -1461 2158 -1968 2990 -2595 758
-571 1213 -955 2415 -2036 940 -845 1320 -1172 1795 -1545 917 -718 1701
-1200 3033 -1862 1096 -546 2007 -939 4032 -1740 2119 -839 2850 -1164 3740
-1665 1476 -831 2758 -1770 3754 -2752 257 -254 524 -537 518 -549 -14 -24
-339 -126 -543 -171 -471 -103 -865 -136 -1909 -160 -1389 -32 -2006 -84
-2780 -235 -96 -19 -384 -72 -640 -119 -892 -163 -1242 -245 -1705 -400 -484
-162 -873 -358 -1205 -605 -41 -31 -151 -121 -245 -201 -383 -326 -719 -566
-1173 -839 -1769 -1062 -4219 -1768 -6712 -1936 -566 -37 -1414 -50 -1815 -25
-397 23 -716 78 -1110 191 -376 107 -617 197 -1455 547 -811 338 -1191 473
-1695 602 -343 89 -612 137 -1055 190 -1168 139 -1951 443 -2954 1147 -83 59
-322 231 -531 383 -881 641 -1253 879 -1803 1154 -635 318 -1463 625 -2134
792 -43 10 -69 22 -72 33 -3 9 -16 77 -30 151 -121 661 -69 1374 169 2295 107
417 211 745 525 1650 285 823 350 1028 439 1382 109 435 135 629 136 988 0
246 -3 295 -22 400 -39 212 -99 390 -265 780 -326 765 -701 1329 -1110 1667
-476 394 -988 576 -1903 677 -436 49 -921 86 -1110 85 -430 -1 -779 -90 -1996
-512 -908 -315 -1317 -447 -1773 -572 -867 -237 -1667 -354 -2197 -321 -578
36 -958 170 -1214 426 -205 204 -282 400 -310 792 -39 539 -132 927 -310 1283
-292 587 -744 911 -1395 1002 -139 19 -505 16 -655 -5 -1167 -167 -2646 -939
-4580 -2391 -1077 -808 -2347 -1889 -3475 -2957 l-176 -166 -39 34 c-22 19
-213 180 -425 356 -368 308 -546 461 -673 578 l-58 54 25 190 c14 105 30 235
37 290 14 123 41 200 110 311 225 359 736 833 1312 1216 199 133 280 205 350
314 101 156 141 290 141 474 -1 201 -40 310 -185 505 -353 477 -716 1164 -925
1752 -131 370 -215 730 -245 1051 l-13 132 42 82 c94 185 266 393 596 724 423
422 900 829 1610 1374 1469 1127 3696 2601 6290 4165 404 244 471 271 1089
439 1748 478 3737 763 4912 706z m-5395 -10770 c206 -26 346 -153 429 -393 56
-161 83 -329 101 -632 26 -429 104 -752 260 -1070 360 -734 1059 -1200 2045
-1364 901 -150 2056 -14 3510 414 421 124 688 213 1800 598 579 200 921 300
1133 332 92 14 114 13 571 -25 551 -46 750 -69 952 -110 371 -75 603 -192 829
-419 252 -254 466 -636 713 -1271 82 -211 87 -236 88 -375 0 -357 -96 -699
-624 -2220 -263 -757 -427 -1322 -542 -1858 -252 -1185 -228 -2226 76 -3151
62 -189 102 -261 199 -357 88 -88 198 -148 315 -175 729 -166 1325 -359 1935
-629 179 -79 587 -282 628 -313 l23 -18 -87 -139 c-326 -527 -738 -1091 -1169
-1600 -433 -512 -990 -1072 -1505 -1515 -1645 -1412 -3576 -2380 -5595 -2805
-549 -115 -1055 -184 -1675 -227 -241 -17 -1096 -17 -1325 0 -744 55 -1304
142 -1940 301 -1311 329 -2519 906 -3595 1717 -1083 816 -1999 1855 -2682
3044 -805 1400 -1284 2976 -1413 4645 -129 1687 111 3451 697 5105 165 466
387 994 581 1382 l102 203 145 118 c1325 1079 2636 1969 3540 2405 492 237
907 373 1229 402 128 11 159 11 251 0z"/>
<path d="M24615 42336 c-119 -28 -221 -90 -297 -182 -116 -140 -299 -573 -381
-900 -71 -283 -99 -511 -99 -819 1 -314 36 -573 117 -851 124 -425 327 -776
620 -1070 291 -293 624 -482 1016 -578 338 -82 753 -77 1102 14 711 184 1343
676 1758 1371 94 156 110 202 117 322 4 75 1 113 -13 163 -18 66 -73 162 -116
201 -57 51 -3527 2297 -3576 2314 -72 26 -175 32 -248 15z"/>
<path d="M34199 39686 c-159 -46 -290 -149 -376 -296 -56 -95 -184 -467 -238
-693 -77 -322 -100 -522 -100 -872 1 -300 11 -409 61 -655 78 -381 240 -744
463 -1035 68 -90 255 -279 346 -350 300 -235 638 -372 1024 -416 153 -17 464
-7 620 21 1017 180 1975 986 2487 2092 84 181 95 220 101 334 6 110 -7 174
-55 271 -21 45 -43 66 -141 140 l-116 87 -1910 689 -1910 689 -105 4 c-68 2
-121 -1 -151 -10z"/>
</g>
</svg>
