<?xml version="1.0" encoding="UTF-8"?>
<svg xmlns="http://www.w3.org/2000/svg" viewBox="0 0 197 322.15">
  <defs>
    <style>
      .cls-1 {
        fill: #fff;
      }

      .cls-1, .cls-2 {
        fill-rule: evenodd;
      }

      .cls-3 {
        font-family: FranklinGothic-Heavy, 'Franklin Gothic Heavy';
        font-size: 39px;
        font-weight: 800;
      }

      .cls-2 {
        fill: #1c1b18;
      }
    </style>
  </defs>
  <g id="Layer_1" data-name="Layer 1">
    <path class="cls-2" d="m146.5,40.3v29.7h37.25v-37.05l-21.55-21.15h-40.2l-21.55,21.15v108l25.55,20.9h34.7l23.05-20.9v-43.15h-37.25v35.6h-7.75V40.3h7.75ZM69.5,11.8H11.95v150.05h37.25v-51.05h20.3l23.85-20.5v-57.35l-23.85-21.15Zm-13.4,28.5v42.05h-6.9v-42.05h6.9ZM4.6,317.55h185.6v-71.25H4.6v71.25Zm190.2,4.6H0V0h194.8v322.15Z"/>
  </g>
  <g id="Layer_2" data-name="Layer 2">
    <g>
      <text class="cls-3" transform="translate(12.2 286.96)"><tspan x="0" y="0">Honduras</tspan></text>
      <path class="cls-1" d="m107.15,176.65h23.4v9h-5.4v38.4h-12.25v-38.4h-5.75v-9Zm-3.2,6.8v8.5h-11.3v-6.15h-2.5v9.7l6.95.6,7.5,6.55v15.1l-6.3,6.3h-13.65l-6.4-6.4v-8.55h11.9v6.3h2.5v-9.85l-6.9-.75-6.9-6.3v-15.25l6.6-6.6h11.7l6.8,6.8Zm-42.4,4.7l-1.35,18.65h3.65l-1.35-18.65h-.95Zm-2.6,35.9h-11.2l6.2-47.4h16.2l6.2,47.4h-11.3l-.6-8.6h-4.85l-.65,8.6Zm-30.65-23.85l3.5-23.55h13.2v47.4h-10.85v-23.85h-.55l-3.5,23.85h-4.55l-3.45-23.85h-.6v23.85h-10.55v-47.4h12.85l3.5,23.55h1Zm105.4,23.85v-47.4h19.75v9.1h-8.1v9.15h6.65v8.9h-6.65v11.3h8.5v8.95h-20.15Zm42.9-47.4l7.05,7v12.4l-4.8,4.4,4.8,4.65v18.95h-11.35v-18.85h-2.5v18.85h-11.7v-47.4h18.5Zm-6.8,19.7h2.5v-10.6h-2.5v10.6Z"/>
    </g>
  </g>
</svg>